<?xml version="1.0" standalone="no"?>
<!DOCTYPE svg PUBLIC "-//W3C//DTD SVG 20010904//EN"
 "http://www.w3.org/TR/2001/REC-SVG-20010904/DTD/svg10.dtd">
<svg version="1.0" xmlns="http://www.w3.org/2000/svg"
 width="500.000000pt" height="500.000000pt" viewBox="0 75 500.000000 400.000000"
 preserveAspectRatio="xMidYMid meet">
<metadata>
Created by potrace 1.16, written by Peter Selinger 2001-2019
</metadata>
<g transform="translate(0.000000,500.000000) scale(0.100000,-0.100000)"
fill="#000000" stroke="none">
<path d="M780 3780 c-353 -36 -629 -339 -631 -693 -1 -94 11 -149 57 -264 59
-146 129 -274 269 -488 137 -210 369 -525 386 -525 12 0 242 310 346 466 175
262 280 457 339 629 23 66 28 97 27 175 -2 421 -367 743 -793 700z" style="fill:#0e4aef"/>
<path d="M2418 3779 c-417 -46 -712 -460 -607 -851 23 -84 127 -305 204 -433
120 -200 465 -685 486 -685 10 0 170 208 277 360 189 269 343 544 404 722 27
79 32 107 31 188 0 120 -20 199 -80 320 -130 260 -417 413 -715 379z" style="fill:#0e4aef"/>
<path d="M4052 3779 c-285 -33 -532 -255 -598 -539 -9 -35 -16 -108 -16 -160
0 -81 5 -111 31 -189 57 -169 168 -376 343 -635 155 -230 324 -450 339 -441
21 13 261 342 364 500 178 270 255 416 308 580 34 106 40 164 28 262 -20 155
-81 288 -187 403 -154 166 -376 245 -612 219z" style="fill:#bb3bdb"/>
<path d="M1548 2473 c-354 -474 -553 -831 -582 -1049 -9 -62 9 -198 35 -279
61 -183 223 -354 405 -428 98 -39 163 -52 274 -52 132 0 188 14 319 77 90 43
116 62 186 132 134 134 206 304 206 486 0 99 -17 169 -73 300 -89 210 -254
474 -497 799 -134 178 -137 181 -143 181 -3 0 -61 -75 -130 -167z" style="fill:#0e4aef"/>
<path d="M3219 2478 c-342 -455 -554 -839 -583 -1054 -15 -109 29 -298 96
-412 47 -80 170 -201 253 -250 161 -94 353 -123 533 -81 81 19 242 103 305
159 196 176 280 444 216 683 -24 86 -136 320 -219 457 -86 141 -207 316 -329
479 -137 181 -137 181 -144 181 -3 0 -61 -73 -128 -162z" style="fill:#bb3bdb"/>
</g>
</svg>
